<?xml version="1.0" ?><!DOCTYPE svg  PUBLIC '-//W3C//DTD SVG 1.1//EN'  'http://www.w3.org/Graphics/SVG/1.1/DTD/svg11.dtd'><svg enable-background="new 0 0 100 100" height="100px" id="Layer_1" version="1.1" viewBox="0 0 100 100" width="100px" xml:space="preserve" xmlns="http://www.w3.org/2000/svg" xmlns:xlink="http://www.w3.org/1999/xlink"><g><defs><rect height="100" id="SVGID_1_" width="100"/></defs><path d="M95,20.001C95,12.119,87.884,5,80,5H20C12.116,5,5,12.119,5,20.001v59.998   C5,87.881,12.116,95,20.001,95H50V61H39V46h11v-5.844C50,30.077,57.568,21,66.875,21H79v15H66.875C65.548,36,64,37.611,64,40.024   V46h15v15H64v34h16c7.884,0,15-7.119,15-15.001V20.001z"/></g></svg>