<?xml version="1.0" ?><!DOCTYPE svg  PUBLIC '-//W3C//DTD SVG 1.1//EN'  'http://www.w3.org/Graphics/SVG/1.1/DTD/svg11.dtd'><svg enable-background="new 0 0 100 100" height="100px" id="Layer_1" version="1.1" viewBox="0 0 100 100" width="100px" xml:space="preserve" xmlns="http://www.w3.org/2000/svg" xmlns:xlink="http://www.w3.org/1999/xlink"><g><defs><rect height="100" id="SVGID_1_" width="100"/></defs><path d="M87.877,5.608H11.174c-3.673,0-6.65,2.886-6.65,6.448v77.101c0,3.562,2.978,6.45,6.65,6.45   h76.703c3.673,0,6.646-2.89,6.646-6.45V12.056C94.523,8.495,91.55,5.608,87.877,5.608 M31.809,80.943H18.211V40.31h13.598V80.943z    M25.011,34.759H24.92c-4.56,0-7.516-3.119-7.516-7.023c0-3.983,3.043-7.017,7.693-7.017c4.651,0,7.512,3.033,7.602,7.017   C32.699,31.641,29.749,34.759,25.011,34.759 M80.827,80.943H67.232V59.204c0-5.464-1.969-9.19-6.885-9.19   c-3.762,0-5.994,2.514-6.974,4.941c-0.364,0.868-0.453,2.08-0.453,3.292v22.696H39.329c0,0,0.178-36.823,0-40.634h13.593v5.761   c1.805-2.768,5.029-6.717,12.249-6.717c8.947,0,15.656,5.804,15.656,18.292V80.943z M52.834,46.199   c0.023-0.038,0.057-0.084,0.088-0.128v0.128H52.834z"/></g></svg>