<?xml version="1.0" ?><!DOCTYPE svg  PUBLIC '-//W3C//DTD SVG 1.1//EN'  'http://www.w3.org/Graphics/SVG/1.1/DTD/svg11.dtd'><svg enable-background="new 0 0 100 100" height="100px" id="Layer_1" version="1.1" viewBox="0 0 100 100" width="100px" xml:space="preserve" xmlns="http://www.w3.org/2000/svg" xmlns:xlink="http://www.w3.org/1999/xlink"><g><defs><rect height="100" id="SVGID_1_" width="100"/></defs><path d="M90.914,56.916c0.336-2.125,0.513-4.298,0.513-6.519c0-23.062-18.694-41.756-41.757-41.756   c-2.213,0-4.393,0.183-6.516,0.515C39.308,6.777,34.769,5.4,29.905,5.4C15.969,5.4,4.672,16.696,4.672,30.633   c0,4.863,1.378,9.399,3.756,13.252c-0.329,2.129-0.51,4.296-0.51,6.514c0,23.063,18.694,41.752,41.751,41.752   c2.215,0,4.396-0.17,6.519-0.506c3.85,2.375,8.385,3.756,13.248,3.756c13.939,0,25.235-11.299,25.235-25.235   C94.672,65.301,93.295,60.766,90.914,56.916 M69.495,69.389c-1.767,2.543-4.361,4.53-7.752,5.959   c-3.397,1.432-7.413,2.146-12.05,2.146c-5.558,0-10.16-0.972-13.792-2.937c-2.575-1.406-4.669-3.293-6.279-5.646   c-1.613-2.354-2.431-4.659-2.431-6.907c0-1.326,0.506-2.48,1.49-3.42c0.995-0.947,2.276-1.422,3.788-1.422   c1.239,0,2.303,0.373,3.169,1.111c0.86,0.74,1.581,1.813,2.171,3.231c0.707,1.644,1.475,3.017,2.292,4.112   c0.812,1.081,1.955,1.984,3.435,2.691c1.464,0.709,3.412,1.063,5.85,1.063c3.336,0,6.033-0.722,8.096-2.146   c2.074-1.436,3.07-3.184,3.07-5.297c0-1.684-0.537-3.022-1.639-4.065c-1.111-1.056-2.547-1.861-4.328-2.423   c-1.788-0.566-4.188-1.168-7.198-1.803c-4.04-0.881-7.419-1.908-10.155-3.086c-2.74-1.184-4.922-2.801-6.539-4.844   c-1.621-2.063-2.429-4.627-2.429-7.664c0-2.896,0.853-5.486,2.561-7.739c1.707-2.261,4.177-3.991,7.397-5.196   c3.209-1.205,6.987-1.806,11.315-1.806c3.461,0,6.455,0.399,8.989,1.196c2.527,0.804,4.634,1.862,6.318,3.191   c1.674,1.326,2.905,2.725,3.686,4.193c0.779,1.472,1.172,2.91,1.172,4.313c0,1.305-0.506,2.488-1.491,3.525   c-0.985,1.039-2.246,1.568-3.718,1.563c-1.327,0-2.368-0.306-3.09-0.954c-0.703-0.627-1.441-1.625-2.24-3.016   c-1.01-1.941-2.219-3.453-3.625-4.535c-1.369-1.061-3.628-1.614-6.771-1.607c-2.908,0-5.235,0.594-6.991,1.757   c-1.767,1.18-2.612,2.55-2.616,4.155c0.003,1.006,0.292,1.854,0.874,2.579c0.591,0.732,1.413,1.366,2.47,1.901   c1.057,0.543,2.132,0.963,3.213,1.265c1.093,0.31,2.907,0.758,5.428,1.351c3.161,0.682,6.03,1.443,8.607,2.273   c2.572,0.834,4.768,1.84,6.581,3.039c1.828,1.195,3.257,2.717,4.276,4.557c1.027,1.843,1.539,4.095,1.539,6.742   C72.154,63.982,71.266,66.85,69.495,69.389"/></g></svg>