<?xml version="1.0" ?><!DOCTYPE svg  PUBLIC '-//W3C//DTD SVG 1.1//EN'  'http://www.w3.org/Graphics/SVG/1.1/DTD/svg11.dtd'><svg enable-background="new 0 0 100 100" height="100px" id="Layer_1" version="1.1" viewBox="0 0 100 100" width="100px" xml:space="preserve" xmlns="http://www.w3.org/2000/svg" xmlns:xlink="http://www.w3.org/1999/xlink"><g><defs><rect height="100" id="SVGID_1_" width="100"/></defs><path d="M88.266,38.962c0,4.582-3.729,8.298-8.328,8.298c-4.604,0-8.33-3.716-8.33-8.298   s3.728-8.297,8.33-8.297C84.537,30.666,88.266,34.38,88.266,38.962 M84.91,52.982l-10.086,8.594   c0.109,0.686,0.183,1.383,0.183,2.098c0,7.316-5.954,13.248-13.296,13.248c-6.334,0-11.623-4.414-12.963-10.32l-24.931-8.427   c-1.969,1.489-4.419,2.386-7.083,2.386C10.253,60.561,5,55.325,5,48.87c0-6.455,5.254-11.688,11.734-11.688   c5.573,0,10.226,3.869,11.428,9.054l24.083,8.142c2.346-2.369,5.581-3.854,9.166-3.935l3.607-10.924   c-0.011-0.217-0.033-0.431-0.033-0.649c0-8.255,6.721-14.948,15.008-14.948S95,30.614,95,38.87   C95,45.41,90.779,50.953,84.91,52.982 M24.112,44.869c-1.402-2.515-4.093-4.218-7.183-4.218c-4.538,0-8.218,3.665-8.218,8.185   s3.68,8.184,8.218,8.184c0.839,0,1.647-0.125,2.408-0.358l-3.903-1.319c-3.146-1.678-4.331-5.578-2.645-8.713   c1.686-3.131,5.602-4.31,8.745-2.631L24.112,44.869z M68.289,38.904c0,6.412,5.217,11.611,11.654,11.611   c6.437,0,11.658-5.199,11.658-11.611c0-6.414-5.222-11.613-11.658-11.613C73.506,27.292,68.289,32.491,68.289,38.904    M68.518,64.811c0-4.881-3.973-8.84-8.873-8.84c-0.688,0-1.352,0.086-1.994,0.232l4.959,1.676c3.145,1.68,4.326,5.58,2.642,8.711   c-1.685,3.137-5.601,4.312-8.744,2.635l-5.343-1.807c1.115,3.609,4.49,6.232,8.48,6.232C64.545,73.65,68.518,69.691,68.518,64.811"/></g></svg>