<?xml version="1.0" ?><!DOCTYPE svg  PUBLIC '-//W3C//DTD SVG 1.1//EN'  'http://www.w3.org/Graphics/SVG/1.1/DTD/svg11.dtd'><svg enable-background="new 0 0 100 100" height="100px" id="Layer_1" version="1.1" viewBox="0 0 100 100" width="100px" xml:space="preserve" xmlns="http://www.w3.org/2000/svg" xmlns:xlink="http://www.w3.org/1999/xlink"><g><defs><rect height="100" id="SVGID_1_" width="100"/></defs><path d="M84.803,46.564c5.055-0.417,8.483-2.715,9.803-5.833c-1.824,1.12-7.483,2.341-10.609,1.178   c-0.153-0.734-0.324-1.432-0.492-2.062c-2.382-8.746-10.537-15.792-19.082-14.941c0.691-0.279,1.393-0.539,2.092-0.772   c0.94-0.337,6.459-1.235,5.59-3.183c-0.732-1.713-7.475,1.295-8.744,1.688c1.676-0.63,4.447-1.714,4.744-3.64   c-2.567,0.352-5.088,1.566-7.035,3.331c0.703-0.757,1.236-1.679,1.35-2.672c-6.848,4.375-10.848,13.195-14.085,21.75   c-2.542-2.463-4.795-4.403-6.816-5.48c-5.67-3.041-12.449-6.213-23.091-10.164c-0.327,3.521,1.741,8.203,7.7,11.316   c-1.291-0.173-3.652,0.213-5.54,0.665c0.769,4.034,3.28,7.357,10.079,8.964c-3.107,0.205-4.713,0.912-6.168,2.436   c1.415,2.805,4.868,6.107,11.08,5.429c-6.906,2.977-2.816,8.49,2.804,7.667C28.793,72.143,13.679,71.416,5,63.134   c22.661,30.88,71.921,18.264,79.262-11.481c5.5,0.048,8.733-1.904,10.738-4.056C91.831,48.134,87.238,47.578,84.803,46.564"/></g></svg>